#!OML:ASF X:\für Bonn\!DataBase\2005_08_12_Daniel\c3d\Daniel.ASF
:FULLY-SPECIFIED
:DEGREES
124
root 0.329034 11.0583 -15.5171 346.413 18.8321 0.0925386
lowerback 76.0591 -2.67754 6.15136
upperback 12.4805 2.28725 -2.94043
thorax -6.33321 2.01436 -6.8596
lowerneck 2.57012 -4.08618 -5.26559
upperneck 16.9919 -5.33685 1.95794
head 4.88682 -2.69662 1.29952
rclavicle 2.06736e-014 5.40694e-014
rhumerus 38.0028 -26.6485 -102.681
rradius 6.95388
rwrist 53.6305
rhand -40.766 16.4473
rfingers 7.12502
rthumb -13.7061 -13.0814
lclavicle 2.06736e-014 5.40694e-014
lhumerus -17.6671 -1.6618 86.5716
lradius 59.8961
lwrist -1.50002
lhand -11.3285 -8.39042
lfingers 7.12502
lthumb 14.7041 21.0681
rfemur -55.4065 -62.7643 2.77409
rtibia 124.554
rfoot -25.0018 -333.007
rtoes 0.733271
lfemur -66.8325 17.832 -17.9539
ltibia 122.034
lfoot -32.2266 -28.1748
ltoes 3.22735
125
root 0.322063 10.9157 -15.4954 346 18.8896 0.08941
lowerback 76.4082 -2.73969 6.12921
upperback 12.435 2.24581 -2.92998
thorax -6.35286 1.99973 -6.81941
lowerneck 2.76775 -4.04011 -5.15609
upperneck 17.0053 -5.27578 1.89013
head 4.85099 -2.66467 1.26737
rclavicle 1.51076e-014 2.70347e-014
rhumerus 37.9403 -26.8404 -103.011
rradius 6.95893
rwrist 54.545
rhand -41.5905 16.8019
rfingers 7.12502
rthumb -14.5006 -12.6713
lclavicle 1.51076e-014 2.70347e-014
lhumerus -17.8348 -1.68828 86.5218
lradius 59.4785
lwrist -1.52752
lhand -11.3538 -8.25815
lfingers 7.12502
lthumb 14.6797 21.2022
rfemur -54.3974 -64.5297 0.60628
rtibia 125.931
rfoot -24.821 -331.896
rtoes 1.01181
lfemur -67.5102 18.739 -17.6945
ltibia 123.41
lfoot -32.1261 -28.8328
ltoes 3.40045
126
root 0.315056 10.7746 -15.4739 345.581 18.9451 0.0673844
lowerback 76.7702 -2.80053 6.10056
upperback 12.3562 2.20206 -2.90918
thorax -6.41 1.97886 -6.76462
lowerneck 2.92918 -3.97514 -5.1243
upperneck 17.1086 -5.19253 1.87193
head 4.85175 -2.62393 1.26269
rclavicle 3.18055e-015 -1.19271e-014
rhumerus 37.8111 -27.0065 -103.315
rradius 6.97655
rwrist 55.5339
rhand -42.3737 17.0985
rfingers 7.12502
rthumb -15.2551 -12.3189
lclavicle 3.18055e-015 -1.19271e-014
lhumerus -18.0316 -1.64676 86.4786
lradius 59.0596
lwrist -1.6232
lhand -11.3661 -8.12117
lfingers 7.12502
lthumb 14.6678 21.34
rfemur -53.0359 -66.3237 -1.90449
rtibia 127.282
rfoot -24.6755 -330.749
rtoes 1.34062
lfemur -68.187 19.7057 -17.4009
ltibia 124.783
lfoot -32.076 -29.4931
ltoes 3.51721
127
root 0.307027 10.6311 -15.4532 345.124 18.9729 -0.0679631
lowerback 77.0531 -2.89321 6.16672
upperback 12.3202 2.1866 -2.90081
thorax -6.41617 1.97703 -6.77169
lowerneck 3.07753 -3.93006 -5.00734
upperneck 17.185 -5.13126 1.81367
head 4.84381 -2.59074 1.23062
rclavicle 9.54166e-015 -9.14409e-015
rhumerus 37.6475 -27.2252 -103.651
rradius 7.04975
rwrist 56.5871
rhand -43.1396 17.2698
rfingers 7.12502
rthumb -15.9928 -12.09
lclavicle 9.54166e-015 -9.14409e-015
lhumerus -18.1925 -1.67109 86.3919
lradius 58.6311
lwrist -1.74279
lhand -11.3976 -8.074
lfingers 7.12502
lthumb 14.6375 21.3894
rfemur -51.2829 -68.1251 -4.66355
rtibia 128.609
rfoot -24.6211 -329.645
rtoes 1.60712
lfemur -68.9159 20.8141 -16.9517
ltibia 126.175
lfoot -31.9931 -30.277
ltoes 3.65546
128
root 0.299544 10.4869 -15.4326 344.669 19.0087 -0.169182
lowerback 77.3366 -2.96502 6.18051
upperback 12.2755 2.15626 -2.87973
thorax -6.43692 1.96441 -6.73764
lowerneck 3.19774 -3.86533 -4.94924
upperneck 17.293 -5.04441 1.77423
head 4.85161 -2.54779 1.21409
rclavicle 3.18055e-015 1.66979e-014
rhumerus 37.4778 -27.3725 -104.004
rradius 7.08059
rwrist 57.6491
rhand -43.8797 17.3916
rfingers 7.12502
rthumb -16.7053 -11.9096
lclavicle 3.18055e-015 1.66979e-014
lhumerus -18.3462 -1.64455 86.3309
lradius 58.1983
lwrist -1.87865
lhand -11.4209 -7.9639
lfingers 7.12502
lthumb 14.615 21.5011
rfemur -48.9074 -69.9823 -8.15574
rtibia 129.953
rfoot -24.6047 -328.491
rtoes 1.84475
lfemur -69.6143 21.982 -16.5168
ltibia 127.546
lfoot -31.9412 -31.0558
ltoes 3.80226
